<svg width="30" height="30" viewBox="0 0 30 30" fill="none" xmlns="http://www.w3.org/2000/svg">
  <path fill-rule="evenodd" clip-rule="evenodd" d="M15 30C23.2843 30 30 23.2843 30 15C30 6.7157 23.2843 0 15 0C6.71573 0 0 6.7157 0 15C0 23.2843 6.71573 30 15 30ZM8.52097 7.89532L15.0462 5.90173L21.7171 7.93829C21.8288 7.97168 21.9492 7.95947 22.0519 7.9043C22.1546 7.84918 22.2312 7.75562 22.2651 7.64404C22.299 7.53253 22.2873 7.41211 22.2326 7.3092C22.1779 7.20624 22.0846 7.12915 21.9732 7.09485L15.1742 5.01917C15.0908 4.99359 15.0016 4.99359 14.9181 5.01917L8.26409 7.05035C8.20849 7.06696 8.15672 7.09442 8.11174 7.1311C8.06677 7.16779 8.02949 7.21301 8.00204 7.26416C7.97458 7.31525 7.9575 7.37134 7.95176 7.42908C7.94602 7.48682 7.95175 7.54517 7.96861 7.60071C7.98547 7.65619 8.01314 7.70789 8.05002 7.75269C8.0869 7.79749 8.13226 7.83459 8.18351 7.86182C8.21766 7.87994 8.25397 7.89349 8.29149 7.9021C8.31028 7.90643 8.32938 7.90955 8.34866 7.91138C8.40644 7.91687 8.46474 7.91089 8.5202 7.8938L8.52097 7.89532ZM24.1661 9.79773L21.1444 16.0799L21.1359 16.0967L16.1343 25.4513C18.4629 24.0581 20.1103 22.3953 21.2839 20.7073C22.406 19.0836 23.2212 17.2681 23.6893 15.3506C24.0354 13.9393 24.2107 12.4915 24.2114 11.0383C24.2159 10.6242 24.2008 10.2102 24.1661 9.79773ZM14.8109 26.9313L14.8136 26.933C14.8382 26.9482 14.8641 26.9609 14.8909 26.9708C14.8991 26.9739 14.9074 26.9767 14.9158 26.9792C14.9587 26.993 15.0036 27 15.0489 27C15.1216 27 15.1931 26.9819 15.2571 26.9473L15.7992 26.6552C18.6531 25.1171 20.6391 23.181 22.01 21.2111C23.1935 19.4994 24.0534 17.5854 24.5473 15.5638C24.9104 14.0833 25.0942 12.5643 25.0948 11.0399C25.1019 10.3342 25.0555 9.62909 24.956 8.93048L24.8402 8.23041C24.8312 8.17322 24.8109 8.11829 24.7805 8.06897C24.7502 8.01959 24.7104 7.97668 24.6634 7.94281C24.6164 7.90887 24.5632 7.88464 24.5068 7.8714C24.4504 7.85815 24.3919 7.8562 24.3347 7.86566L24.3206 7.86823C24.2988 7.87213 24.2772 7.87769 24.256 7.88495C24.1464 7.92242 24.056 8.00165 24.0044 8.10541L20.3592 15.6904L20.3136 15.7757C20.2909 15.7684 20.2675 15.7629 20.2437 15.7595C20.2226 15.7563 20.2013 15.7548 20.1797 15.7548H10.0046L6.08578 8.10986C6.08064 8.09906 6.07504 8.08838 6.06902 8.078C6.04436 8.03461 6.01246 7.99567 5.97464 7.96295C5.93073 7.92493 5.87971 7.896 5.82453 7.87787C5.76936 7.85968 5.71114 7.85266 5.65324 7.85718C5.59533 7.86169 5.53889 7.87769 5.48721 7.90417C5.43551 7.93066 5.38959 7.9671 5.3521 8.01147C5.3146 8.05585 5.28628 8.10718 5.26878 8.16254C5.25818 8.19611 5.25167 8.23071 5.24934 8.26562L5.13951 8.92969C5.03992 9.6283 4.99353 10.3335 5.00072 11.0391C5.00127 12.5636 5.18509 14.0825 5.5482 15.563C6.04248 17.585 6.90295 19.4993 8.08698 21.2111C9.45567 23.181 11.4408 25.1178 14.2978 26.6552L14.8109 26.9313ZM10.4547 16.6327H19.8557L15.0577 25.6124L10.4547 16.6327ZM13.9952 25.4743L5.93037 9.73334C5.89177 10.1674 5.87476 10.6031 5.87945 11.0391C5.88028 12.492 6.0556 13.9396 6.40162 15.3506C6.8697 17.2681 7.68493 19.0836 8.80698 20.7073C9.98781 22.4046 11.6463 24.0765 13.9952 25.4743Z" fill="white"/>
</svg>