<svg t="1632142446861" class="icon" viewBox="0 0 1024 1024" version="1.1" xmlns="http://www.w3.org/2000/svg" p-id="760" width="48" height="48" xmlns:xlink="http://www.w3.org/1999/xlink"><defs><style type="text/css"></style></defs><path d="M419.669333 599.483733c32.426667 0 58.1632-28.842667 58.1632-61.781333 0-32.904533-25.7024-61.7472-58.1632-61.7472-32.938667 0-58.1632 29.354667-58.1632 61.781333 0 32.904533 25.7024 61.781333 58.1632 61.781334z m206.9504 0c32.938667 0 61.781333-29.320533 58.1632-61.781333 0-32.904533-25.7024-61.7472-58.1632-61.7472-32.938667 0-58.1632 29.354667-58.1632 61.781333-0.238933 32.904533 25.7024 61.781333 58.1632 61.781334z" fill="#ffffff" p-id="761"></path><path d="M510.532267 1022.532267c282.180267 0 510.532267-228.590933 510.532266-510.532267 0-281.941333-228.352-510.7712-510.532266-510.7712C232.413867 1.2288 6.485333 223.3344 0 499.985067v23.790933c6.485333 276.650667 232.448 498.756267 510.532267 498.756267zM274.261333 323.072c80.042667-61.781333 159.8464-58.1632 159.8464-58.1632l7.168 7.202133c-98.030933 25.258667-148.992 72.840533-148.992 72.840534 76.458667-43.758933 177.834667-54.5792 221.866667-54.5792h21.6064c40.1408 0 141.824 7.236267 221.866667 54.613333 0 0-50.961067-47.377067-149.026134-72.874667l7.202134-7.168s80.042667-7.236267 159.8464 58.129067c0 0 87.2448 156.2624 87.2448 326.894933 0 0-54.545067 80.042667-174.250667 83.626667l-36.0448-47.3088s69.2224-21.640533 98.065067-65.6384c0 0-83.626667 54.5792-211.0464 61.781333h-21.640534c-127.3856-3.618133-211.0464-61.781333-211.0464-61.781333 28.842667 43.758933 98.065067 65.6384 98.065067 65.6384l-36.0448 47.342933c-119.7056 0-174.250667-83.626667-174.250667-83.626666-7.441067-170.666667 79.530667-326.929067 79.530667-326.929067z" fill="#ffffff" p-id="762"></path></svg>