<svg width="30" height="30" viewBox="0 0 30 30" fill="none" xmlns="http://www.w3.org/2000/svg">
  <path d="M15.0269 0.112427C6.75907 0.112427 0.0546875 6.92987 0.0546875 15.3403C0.0546875 22.0684 4.34469 27.7766 10.2936 29.7902C11.0419 29.9311 11.3166 29.4598 11.3166 29.0576C11.3166 28.6945 11.3027 27.4949 11.2963 26.2225C7.13097 27.1436 6.25204 24.4257 6.25204 24.4257C5.57097 22.6656 4.58965 22.1975 4.58965 22.1975C3.23122 21.2524 4.69204 21.2718 4.69204 21.2718C6.19551 21.379 6.98717 22.8411 6.98717 22.8411C8.32254 25.1691 10.4897 24.4961 11.3441 24.107C11.4785 23.123 11.8665 22.4507 12.2947 22.0707C8.96915 21.6856 5.47328 20.3799 5.47328 14.5449C5.47328 12.8824 6.05816 11.5239 7.01593 10.4575C6.86047 10.0737 6.34799 8.5251 7.16097 6.42754C7.16097 6.42754 8.41824 6.01827 11.2794 7.98848C12.4737 7.65107 13.7545 7.48187 15.0269 7.47607C16.2993 7.48187 17.5811 7.65107 18.7777 7.98848C21.6353 6.01827 22.8909 6.42754 22.8909 6.42754C23.7058 8.5251 23.1931 10.0737 23.0377 10.4575C23.9977 11.5239 24.5786 12.8824 24.5786 14.5449C24.5786 20.3938 21.076 21.6816 17.742 22.0586C18.2791 22.5312 18.7576 23.4579 18.7576 24.8786C18.7576 26.9159 18.7402 28.5558 18.7402 29.0576C18.7402 29.4628 19.0097 29.9377 19.7687 29.7881C25.7144 27.7723 29.9989 22.0662 29.9989 15.3403C29.9989 6.92987 23.2955 0.112427 15.0269 0.112427Z" fill="#EEEEEE"/>
  <path d="M5.72544 21.9764C5.69246 22.0523 5.57544 22.0748 5.46883 22.0228C5.36023 21.9732 5.29924 21.87 5.33445 21.7941C5.36668 21.7162 5.48395 21.6948 5.5923 21.7465C5.70114 21.7964 5.76312 21.9005 5.72544 21.9764Z" fill="#EEEEEE"/>
  <path d="M6.33187 22.6643C6.26047 22.7316 6.12088 22.7004 6.02617 22.594C5.92824 22.4878 5.90989 22.3458 5.98229 22.2775C6.05592 22.2102 6.1913 22.2417 6.28948 22.3478C6.38741 22.4553 6.4065 22.5962 6.33187 22.6643Z" fill="#EEEEEE"/>
  <path d="M6.92231 23.5414C6.83057 23.6062 6.68057 23.5454 6.58784 23.41C6.49611 23.2746 6.49611 23.1122 6.58983 23.0471C6.6828 22.9821 6.83057 23.0406 6.92454 23.175C7.01602 23.3124 7.01602 23.4751 6.92231 23.5414Z" fill="#EEEEEE"/>
  <path d="M7.73098 24.3887C7.64891 24.4808 7.47412 24.456 7.34619 24.3305C7.21528 24.2076 7.17883 24.0334 7.26114 23.9414C7.3442 23.8491 7.51999 23.875 7.64891 23.9996C7.77883 24.1222 7.8185 24.2977 7.73098 24.3887Z" fill="#EEEEEE"/>
  <path d="M8.84674 24.8807C8.81055 25 8.6422 25.0542 8.47261 25.0035C8.30327 24.9513 8.19245 24.8116 8.22666 24.6911C8.26187 24.571 8.43096 24.5145 8.60179 24.5688C8.77088 24.6207 8.88195 24.7594 8.84674 24.8807Z" fill="#EEEEEE"/>
  <path d="M10.0719 24.9719C10.0761 25.0975 9.93227 25.2016 9.75425 25.2036C9.57524 25.2079 9.43045 25.1063 9.42847 24.9827C9.42847 24.8559 9.56905 24.7527 9.74805 24.7497C9.92607 24.7462 10.0719 24.8471 10.0719 24.9719Z" fill="#EEEEEE"/>
  <path d="M11.2121 24.7745C11.2334 24.897 11.1097 25.0228 10.9329 25.0561C10.7591 25.0887 10.5982 25.013 10.5761 24.8915C10.5546 24.7659 10.6805 24.6401 10.8541 24.6075C11.0311 24.5763 11.1895 24.6499 11.2121 24.7745Z" fill="#EEEEEE"/>
</svg>