<svg width="30" height="30" viewBox="0 0 30 30" fill="none" xmlns="http://www.w3.org/2000/svg">
  <path fill-rule="evenodd" clip-rule="evenodd" d="M0 15C0 6.71573 6.71573 0 15 0C23.2843 0 30 6.71573 30 15C30 23.2843 23.2843 30 15 30C6.71573 30 0 23.2843 0 15ZM12.1609 10.2956L6.58144 7.53892C6.5337 7.5153 6.48819 7.50417 6.44708 7.50417C6.38851 7.50417 6.33897 7.52693 6.30412 7.56847C6.27 7.6091 6.25 7.66783 6.25 7.74132V19.5758C6.25 19.7773 6.39916 20.0157 6.58144 20.1057L11.7375 22.6533C11.8091 22.6887 11.8774 22.7054 11.939 22.7054C12.1128 22.7054 12.2346 22.5726 12.2346 22.3497V10.4136C12.2346 10.3636 12.2061 10.3179 12.1609 10.2956ZM23.7062 22.6492L18.696 20.1737L24.2034 11.3303V22.3455C24.2034 22.6476 23.9797 22.7843 23.7062 22.6492ZM12.7635 11.1813V17.2464L18.2193 19.9419L12.7635 11.1813ZM18.385 7.45705L24.0721 10.267C24.143 10.302 24.1682 10.3894 24.1267 10.4561L18.5298 19.4434L14.6168 13.1599L18.1221 7.53108C18.1594 7.47131 18.2282 7.43698 18.2974 7.43698C18.2993 7.43698 18.3011 7.43753 18.3029 7.43759C18.331 7.43833 18.3591 7.44426 18.385 7.45705Z" fill="#EEEEEE"/>
</svg>