<svg width="30" height="30" viewBox="0 0 30 30" fill="none" xmlns="http://www.w3.org/2000/svg">
  <path fill-rule="evenodd" clip-rule="evenodd" d="M0 15C0 23.2843 6.71573 30 15 30C23.2843 30 30 23.2843 30 15C30 6.71573 23.2843 0 15 0C6.71573 0 0 6.71573 0 15ZM11.4273 22.1785L11.7207 17.8117L11.7204 17.8115L19.7158 10.6428C20.0667 10.3334 19.6391 10.1825 19.1733 10.4632L9.30597 16.6482L5.04381 15.3265C4.12337 15.0465 4.11676 14.4181 5.25046 13.9663L21.8591 7.60336C22.6177 7.2612 23.3499 7.78438 23.0603 8.93791L20.2318 22.1807C20.0343 23.1218 19.462 23.3469 18.6691 22.9122L14.3604 19.7494L12.2894 21.7502C12.2829 21.7566 12.2764 21.7628 12.2699 21.7691C12.0383 21.9931 11.8467 22.1785 11.4273 22.1785Z" fill="#EEEEEE"/>
</svg>