<svg width="30" height="30" viewBox="0 0 30 30" fill="none" xmlns="http://www.w3.org/2000/svg">
  <path fill-rule="evenodd" clip-rule="evenodd" d="M15 0C6.71573 0 0 6.71573 0 15C0 23.2843 6.71573 30 15 30C23.2843 30 30 23.2843 30 15C30 6.71573 23.2843 0 15 0ZM15.715 12.764L15.6757 12.1152C15.5579 10.4337 16.5925 8.89775 18.2295 8.30192C18.8319 8.09007 19.8534 8.06359 20.5214 8.24896C20.7833 8.32841 21.2809 8.59322 21.6345 8.83155L22.2763 9.26849L22.9835 9.0434C23.3764 8.92424 23.9002 8.72563 24.1359 8.59322C24.3586 8.47405 24.555 8.40785 24.555 8.44757C24.555 8.67266 24.0705 9.44062 23.6645 9.86432C23.1144 10.4602 23.2716 10.5131 24.3848 10.1159C25.0527 9.8908 25.0658 9.8908 24.9348 10.1424C24.8562 10.2748 24.4503 10.7382 24.0181 11.1619C23.2847 11.8901 23.2454 11.9696 23.2454 12.5787C23.2454 13.5187 22.8001 15.4784 22.3548 16.5509C21.5298 18.5634 19.7618 20.6422 17.9938 21.6882C15.5055 23.1579 12.1921 23.5287 9.40259 22.668C8.47275 22.3767 6.875 21.6353 6.875 21.5029C6.875 21.4631 7.35956 21.4102 7.9489 21.3969C9.17995 21.3705 10.411 21.0262 11.4587 20.4171L12.1659 19.9934L11.3539 19.7154C10.2015 19.3182 9.16685 18.4045 8.90493 17.5439C8.82635 17.2659 8.85254 17.2526 9.58594 17.2526L10.3455 17.2394L9.7038 16.9348C8.94422 16.5509 8.25011 15.9021 7.90961 15.24C7.66078 14.7634 7.34647 13.5585 7.43814 13.4658C7.46433 13.4261 7.73936 13.5055 8.05367 13.6114C8.95731 13.9424 9.07518 13.863 8.55133 13.3069C7.5691 12.3006 7.26789 10.8044 7.73936 9.38766L7.96199 8.75211L8.82635 9.61275C10.5944 11.3473 12.6767 12.38 15.0602 12.6846L15.715 12.764Z" fill="#EEEEEE"/>
</svg>